# xmcd CD database file
#
# Track frame offsets:
#	150
#	23817
#	49224
#	85260
#	113339
#	141008
#	168034
#	198423
#	226481
#	247868
#	270362
#
# Disc length: 3825 seconds
#
# Revision: 0
# Processed by: cddbd v1.5.2PL0 Copyright (c) Steve Scherf et al.
# Submitted via: CDex 1.70beta2
#
DISCID=7f0eef0b
DTITLE=Joshua Redman - Back East
DYEAR=1900
DGENRE=Jazz
TTITLE0=The Surrey with the Fringe on Top
TTITLE1=East of the Sun (And West of the Moon)
TTITLE2=Zarafah
TTITLE3=Indian Song
TTITLE4=I'm an Old Cowhand
TTITLE5=Wagon Wheels
TTITLE6=Back East
TTITLE7=Mantra #5
TTITLE8=Indonesia
TTITLE9=India
TTITLE10=GJ
EXTD=
EXTT0=
EXTT1=
EXTT2=
EXTT3=
EXTT4=
EXTT5=
EXTT6=
EXTT7=
EXTT8=
EXTT9=
EXTT10=
PLAYORDER=
